<svg xmlns="http://www.w3.org/2000/svg" xmlns:xlink="http://www.w3.org/1999/xlink" width="1600" zoomAndPan="magnify" viewBox="0 0 1200 290.999983" height="388" preserveAspectRatio="xMidYMid meet" version="1.0"><defs><g/><clipPath id="3de5d1e1d4"><path d="M 150.042969 66 L 453 66 L 453 215 L 150.042969 215 Z M 150.042969 66 " clip-rule="nonzero"/></clipPath><clipPath id="744fee6a16"><path d="M 272 40.050781 L 483 40.050781 L 483 251 L 272 251 Z M 272 40.050781 " clip-rule="nonzero"/></clipPath></defs><g clip-path="url(#3de5d1e1d4)"><path fill="#ffffff" d="M 277.613281 196.675781 C 291.058594 190.542969 302.734375 183.78125 312.296875 177.519531 C 330.585938 165.546875 353.964844 143.285156 355.246094 141.503906 L 346.679688 135.78125 L 339.257812 130.820312 L 362.746094 129.902344 L 370.296875 129.605469 L 372.347656 122.339844 L 378.734375 99.714844 L 386.863281 121.769531 L 389.476562 128.855469 L 397.027344 128.5625 L 420.515625 127.644531 L 402.050781 142.191406 L 396.117188 146.867188 L 398.730469 153.953125 L 406.863281 176.011719 L 387.320312 162.945312 L 381.042969 158.75 L 375.109375 163.421875 L 356.648438 177.972656 L 359.816406 166.730469 L 363.03125 155.351562 L 363.425781 153.941406 C 340.953125 170.761719 309.507812 186.976562 290.707031 192.96875 C 286.398438 194.34375 282.03125 195.578125 277.613281 196.675781 Z M 233.410156 213.902344 C 266.726562 212.601562 306.417969 204.132812 345.476562 179.273438 L 337.949219 205.941406 L 381.542969 171.589844 L 427.683594 202.433594 L 408.484375 150.359375 L 452.078125 116.003906 L 396.621094 118.171875 L 377.417969 66.097656 L 362.339844 119.515625 L 306.882812 121.683594 L 338.988281 143.144531 C 317.859375 162.363281 264.847656 203.351562 194.625 206.097656 C 180.429688 206.652344 165.523438 205.644531 150.042969 202.574219 C 150.042969 202.574219 184.992188 215.796875 233.410156 213.902344 " fill-opacity="1" fill-rule="nonzero"/></g><g clip-path="url(#744fee6a16)"><path fill="#ffffff" d="M 377.550781 40.242188 C 319.421875 40.242188 272.300781 87.363281 272.300781 145.492188 C 272.300781 156.5 273.992188 167.109375 277.128906 177.082031 C 281.707031 174.800781 286.078125 172.441406 290.242188 170.042969 C 288.046875 162.234375 286.875 154 286.875 145.492188 C 286.875 95.414062 327.472656 54.816406 377.550781 54.816406 C 427.632812 54.816406 468.226562 95.414062 468.226562 145.492188 C 468.226562 195.570312 427.632812 236.167969 377.550781 236.167969 C 350.390625 236.167969 326.023438 224.222656 309.40625 205.304688 C 304.574219 207.1875 299.683594 208.898438 294.730469 210.445312 C 314 234.980469 343.933594 250.738281 377.550781 250.738281 C 435.679688 250.738281 482.800781 203.617188 482.800781 145.492188 C 482.800781 87.363281 435.679688 40.242188 377.550781 40.242188 " fill-opacity="1" fill-rule="nonzero"/></g><path fill="#ffffff" d="M 224.015625 131.433594 L 229.824219 149.3125 L 248.621094 149.3125 L 233.414062 160.359375 L 239.222656 178.234375 L 224.015625 167.1875 L 208.808594 178.234375 L 214.617188 160.359375 L 199.410156 149.3125 L 218.207031 149.3125 L 224.015625 131.433594 " fill-opacity="1" fill-rule="nonzero"/><path fill="#ffffff" d="M 251.0625 72.511719 L 256.074219 87.945312 L 272.300781 87.945312 L 259.175781 97.480469 L 264.1875 112.910156 L 251.0625 103.375 L 237.933594 112.910156 L 242.949219 97.480469 L 229.824219 87.945312 L 246.046875 87.945312 L 251.0625 72.511719 " fill-opacity="1" fill-rule="nonzero"/><path fill="#ffffff" d="M 168.21875 166.449219 L 171.148438 175.453125 L 180.613281 175.453125 L 172.957031 181.015625 L 175.882812 190.019531 L 168.21875 184.457031 L 160.5625 190.019531 L 163.488281 181.015625 L 155.828125 175.453125 L 165.296875 175.453125 L 168.21875 166.449219 " fill-opacity="1" fill-rule="nonzero"/><g fill="#ffffff" fill-opacity="1"><g transform="translate(543.544883, 155.402656)"><g><path d="M 5.921875 0 L 5.921875 -68.0625 L 20.3125 -68.0625 L 20.3125 -11.859375 L 49.484375 -11.859375 L 49.484375 0 Z M 5.921875 0 "/></g></g></g><g fill="#ffffff" fill-opacity="1"><g transform="translate(603.479599, 155.402656)"><g><path d="M 20.3125 -68.0625 L 20.3125 0 L 5.921875 0 L 5.921875 -68.0625 Z M 20.3125 -68.0625 "/></g></g></g><g fill="#ffffff" fill-opacity="1"><g transform="translate(636.564193, 155.402656)"><g><path d="M 3.328125 -56.203125 L 3.328125 -68.0625 L 59.234375 -68.0625 L 59.234375 -56.203125 L 38.390625 -56.203125 L 38.390625 0 L 24.15625 0 L 24.15625 -56.203125 Z M 3.328125 -56.203125 "/></g></g></g><g fill="#ffffff" fill-opacity="1"><g transform="translate(705.936333, 155.402656)"><g><path d="M 5.921875 0 L 5.921875 -68.0625 L 51.78125 -68.0625 L 51.78125 -56.203125 L 20.3125 -56.203125 L 20.3125 -39.984375 L 49.421875 -39.984375 L 49.421875 -28.125 L 20.3125 -28.125 L 20.3125 -11.859375 L 51.921875 -11.859375 L 51.921875 0 Z M 5.921875 0 "/></g></g></g><g fill="#ffffff" fill-opacity="1"><g transform="translate(770.0913, 155.402656)"><g><path d="M 42.84375 -48.484375 C 42.570312 -51.171875 41.421875 -53.253906 39.390625 -54.734375 C 37.367188 -56.222656 34.640625 -56.96875 31.203125 -56.96875 C 27.679688 -56.96875 24.976562 -56.242188 23.09375 -54.796875 C 21.21875 -53.359375 20.28125 -51.546875 20.28125 -49.359375 C 20.226562 -46.921875 21.269531 -45.070312 23.40625 -43.8125 C 25.550781 -42.5625 28.097656 -41.597656 31.046875 -40.921875 L 37.15625 -39.453125 C 41.101562 -38.566406 44.609375 -37.28125 47.671875 -35.59375 C 50.742188 -33.914062 53.160156 -31.75 54.921875 -29.09375 C 56.679688 -26.445312 57.5625 -23.226562 57.5625 -19.4375 C 57.539062 -13.21875 55.207031 -8.257812 50.5625 -4.5625 C 45.925781 -0.875 39.453125 0.96875 31.140625 0.96875 C 22.878906 0.96875 16.285156 -0.914062 11.359375 -4.6875 C 6.441406 -8.457031 3.894531 -14.019531 3.71875 -21.375 L 17.65625 -21.375 C 17.894531 -17.957031 19.238281 -15.390625 21.6875 -13.671875 C 24.132812 -11.953125 27.226562 -11.09375 30.96875 -11.09375 C 34.625 -11.09375 37.546875 -11.867188 39.734375 -13.421875 C 41.921875 -14.972656 43.023438 -16.992188 43.046875 -19.484375 C 43.023438 -21.785156 42.015625 -23.554688 40.015625 -24.796875 C 38.023438 -26.035156 35.175781 -27.097656 31.46875 -27.984375 L 24.0625 -29.84375 C 18.320312 -31.21875 13.789062 -33.398438 10.46875 -36.390625 C 7.144531 -39.378906 5.492188 -43.378906 5.515625 -48.390625 C 5.492188 -52.515625 6.597656 -56.117188 8.828125 -59.203125 C 11.054688 -62.296875 14.117188 -64.703125 18.015625 -66.421875 C 21.910156 -68.140625 26.34375 -69 31.3125 -69 C 36.363281 -69 40.773438 -68.132812 44.546875 -66.40625 C 48.328125 -64.675781 51.269531 -62.269531 53.375 -59.1875 C 55.476562 -56.113281 56.566406 -52.546875 56.640625 -48.484375 Z M 42.84375 -48.484375 "/></g></g></g><g fill="#ffffff" fill-opacity="1"><g transform="translate(838.200696, 155.402656)"><g><path d="M 3.328125 -56.203125 L 3.328125 -68.0625 L 59.234375 -68.0625 L 59.234375 -56.203125 L 38.390625 -56.203125 L 38.390625 0 L 24.15625 0 L 24.15625 -56.203125 Z M 3.328125 -56.203125 "/></g></g></g><g fill="#ffffff" fill-opacity="1"><g transform="translate(907.572828, 155.402656)"><g><path d="M 17.65625 0 L 2.234375 0 L 25.71875 -68.0625 L 44.265625 -68.0625 L 67.734375 0 L 52.3125 0 L 47.265625 -15.515625 L 22.703125 -15.515625 Z M 26.359375 -26.75 L 43.640625 -26.75 L 35.265625 -52.515625 L 34.734375 -52.515625 Z M 26.359375 -26.75 "/></g></g></g><g fill="#ffffff" fill-opacity="1"><g transform="translate(984.388558, 155.402656)"><g><path d="M 5.921875 0 L 5.921875 -68.0625 L 32.765625 -68.0625 C 40.503906 -68.0625 46.503906 -66.046875 50.765625 -62.015625 C 55.035156 -57.984375 57.171875 -52.585938 57.171875 -45.828125 C 57.171875 -41.179688 56.132812 -37.207031 54.0625 -33.90625 C 51.988281 -30.601562 49.015625 -28.117188 45.140625 -26.453125 L 59.59375 0 L 43.703125 0 L 30.8125 -24.125 L 20.3125 -24.125 L 20.3125 0 Z M 20.3125 -35.703125 L 30.078125 -35.703125 C 38.253906 -35.703125 42.34375 -39.078125 42.34375 -45.828125 C 42.34375 -52.804688 38.234375 -56.296875 30.015625 -56.296875 L 20.3125 -56.296875 Z M 20.3125 -35.703125 "/></g></g></g><g fill="#ffffff" fill-opacity="1"><g transform="translate(732.882239, 216.002592)"><g><path d="M 5.046875 -31.140625 L 14.296875 -4.921875 L 14.65625 -4.921875 L 23.90625 -31.140625 L 27.859375 -31.140625 L 16.421875 0 L 12.53125 0 L 1.09375 -31.140625 Z M 5.046875 -31.140625 "/></g></g></g><g fill="#ffffff" fill-opacity="1"><g transform="translate(771.915808, 216.002592)"><g><path d="M 7.546875 -31.140625 L 7.546875 0 L 3.765625 0 L 3.765625 -31.140625 Z M 7.546875 -31.140625 "/></g></g></g><g fill="#ffffff" fill-opacity="1"><g transform="translate(793.326512, 216.002592)"><g><path d="M 2.0625 -27.796875 L 2.0625 -31.140625 L 25.421875 -31.140625 L 25.421875 -27.796875 L 15.625 -27.796875 L 15.625 0 L 11.859375 0 L 11.859375 -27.796875 Z M 2.0625 -27.796875 "/></g></g></g><g fill="#ffffff" fill-opacity="1"><g transform="translate(830.901653, 216.002592)"><g><path d="M 3.765625 0 L 3.765625 -31.140625 L 22.5625 -31.140625 L 22.5625 -27.796875 L 7.546875 -27.796875 L 7.546875 -17.265625 L 21.59375 -17.265625 L 21.59375 -13.921875 L 7.546875 -13.921875 L 7.546875 -3.34375 L 22.8125 -3.34375 L 22.8125 0 Z M 3.765625 0 "/></g></g></g><path stroke-linecap="round" transform="matrix(0, 2.249777, -2.249777, 0, 511.164488, 40.058951)" fill="none" stroke-linejoin="miter" d="M 0.499891 0.500239 L 93.226092 0.500239 " stroke="#edb641" stroke-width="1" stroke-opacity="1" stroke-miterlimit="4"/></svg>